# xmcd
#
# Track frame offsets: 
#        150
#        9845
#        22001
#        35386
#        50512
#        62628
#        78926
#        89703
#        102093
#        116833
#        130367
#
# Disc length: 1969 seconds
#
# Revision: 0
# Processed by: cddbd v1.5.2PL0 Copyright (c) Steve Scherf et al.
# Submitted via: ExactAudioCopy v1.3
#
DISCID=8a07af0b
DTITLE=Good Time Charlie - Jubel og Skrubbsår
DYEAR=2015
DGENRE=Blues
TTITLE0=Hei, gamle ven
TTITLE1=Rotekonge
TTITLE2=Stilig stil
TTITLE3=Hytteboogiewoogie
TTITLE4=Forelska
TTITLE5=Kenguru
TTITLE6=Kjøpedilla
TTITLE7=Båt i hagen
TTITLE8=Napp
TTITLE9=Sjef
TTITLE10=Fri
EXTD=
EXTT0=
EXTT1=
EXTT2=
EXTT3=
EXTT4=
EXTT5=
EXTT6=
EXTT7=
EXTT8=
EXTT9=
EXTT10=
PLAYORDER=
